<svg xmlns="http://www.w3.org/2000/svg" width="160" height="40" fill-rule="evenodd" stroke-linejoin="round" stroke-miterlimit="2" clip-rule="evenodd" viewBox="0 0 160 40">
  <path d="M13.652.802c-2.56 0-4.55 1.99-4.55 4.55a4.537 4.537 0 0 0 4.55 4.552c2.489 0 4.55-2.064 4.55-4.552a4.537 4.537 0 0 0-4.55-4.55zm82.337 11.376v10.309h1.992v-3.34a58.265 58.265 0 0 1 2.49 3.34h2.415c-1.136-1.705-2.201-3.129-3.056-4.053l2.844-3.057h-2.417l-2.276 2.63v-5.83h-1.992zm-65.06.424.002.003V36.21h16.424L61.79 12.604H47.71l-4.409 7.184v-7.185H30.93Zm-26.379.003A4.537 4.537 0 0 0 0 17.158v9.953h20.903v2.771H0v1.779a4.537 4.537 0 0 0 4.55 4.55h18.203c2.488 0 4.48-1.99 4.48-4.55v-9.953H6.33v-2.775h20.903v-1.775c0-2.56-1.992-4.553-4.481-4.553zm64.563 0c-2.204 0-3.624 1.067-3.624 2.773 0 1.85 1.49 2.415 2.416 2.77 1.066.427 2.275.715 2.275 1.64 0 .638-.286 1.207-1.922 1.207-1.137 0-2.417-.428-2.631-.498l-.498 1.564c.286.144 1.638.641 3.416.641 2.417 0 3.769-1.066 3.769-2.987 0-1.919-1.421-2.487-2.63-2.916-1.067-.355-2.206-.639-2.206-1.492 0-.639.498-1.067 1.707-1.067 1.066 0 2.203.284 2.559.426V12.96c-.428-.142-1.42-.354-2.631-.354Zm-35.838 2.348h7.61v13.293l8.103-13.293h8.535l-11.52 18.912H33.276Zm95.565.213c-2.204 0-3.344 1.634-3.344 3.767 0 2.275 1.28 3.77 3.627 3.77.925 0 1.634-.146 2.416-.357l-.355-1.42a6.222 6.222 0 0 1-1.778.282c-1.137 0-1.777-.567-1.848-1.704h4.34c.07-.144.07-.5.07-.855 0-2.275-1.066-3.483-3.128-3.483zm-50.982.069c-1.138 0-1.776.5-1.99.926l-.072-.783H73.95v9.955h1.989v-3.128c.286.214.783.426 1.566.426 2.06 0 3.198-1.422 3.198-3.768 0-2.347-1.067-3.628-2.844-3.628zm7.323 0c-.995 0-1.706.071-2.487.285v1.494c.781-.285 1.421-.426 2.061-.426 1.137 0 1.492.355 1.492 1.066v.285h-.78c-.64 0-1.208.07-1.635.283-1.066.286-1.707 1.068-1.707 2.275 0 1.563.994 2.133 2.201 2.133.927 0 1.638-.355 1.922-.64l.07.498h1.85v-4.834c0-1.707-.926-2.42-2.987-2.42zm21.402 0c-.995 0-1.705.071-2.487.285v1.494c.782-.285 1.42-.426 2.06-.426 1.067 0 1.424.355 1.424 1.066v.285h-.785c-.568 0-1.136.07-1.563.283-1.136.286-1.778 1.068-1.778 2.275 0 1.563 1.067 2.133 2.275 2.133.926 0 1.636-.355 1.92-.64l.07.498h1.85v-4.834c0-1.707-.994-2.42-2.986-2.42zm7.61 0c-1.707 0-2.917.71-2.917 2.205 0 1.138.783 1.706 1.92 2.062.924.285 1.849.427 1.849.994 0 .429-.356.64-1.351.64-1.066 0-1.99-.353-2.203-.496l-.499 1.493c.428.144 1.423.498 2.775.498 1.918 0 3.267-.642 3.267-2.275 0-1.353-.923-1.778-2.06-2.134-.925-.283-1.778-.428-1.778-.926 0-.284.142-.567 1.067-.567.782 0 1.493.071 2.275.357V15.52c-.638-.212-1.422-.285-2.346-.285zm7.039 0c-1.635 0-2.915.71-2.915 2.205 0 1.138.78 1.706 1.918 2.062.995.285 1.848.427 1.848.994 0 .429-.355.64-1.28.64-1.137 0-1.99-.353-2.275-.496l-.497 1.493c.428.144 1.42.498 2.842.498 1.849 0 3.203-.642 3.203-2.275 0-1.353-.924-1.778-2.061-2.134-.925-.283-1.708-.428-1.708-.926 0-.284.143-.567 1.067-.567.782 0 1.492.071 2.275.357V15.52c-.712-.212-1.423-.285-2.417-.285zm16.352 0c-.926 0-1.778.357-2.133.926l-.071-.783h-1.847v7.11h1.99v-4.054c0-.854.639-1.566 1.35-1.566.711 0 1.138.359 1.138 1.212v4.407h1.919V17.58c0-1.422-.781-2.347-2.346-2.347zm-43.516.071c-.781.001-1.42.43-1.918 1.353l-.071-1.28h-1.846v7.108h1.99v-3.555c0-.853.568-1.847 1.777-1.847.284 0 .567 0 .71.072v-1.78c-.072-.07-.356-.072-.64-.072h-.002zm34.77 1.21c.71 0 1.138.497 1.138 1.492v.214h-2.49c.072-1.066.57-1.706 1.352-1.706zm-51.549.283c.927 0 1.353.711 1.353 2.063 0 .426-.073.783-.143 1.21-.215.57-.57 1.065-1.352 1.065-.497 0-.924-.211-1.209-.497v-1.635c0-1.422.57-2.206 1.351-2.206zm8.605 2.418v.002h.354v1.564a2.37 2.37 0 0 1-1.349.425c-.64 0-.855-.426-.855-.852 0-.712.429-1.139 1.85-1.139zm21.4 0v.002h.285v1.564c-.212.212-.71.425-1.278.425-.64 0-.927-.426-.927-.852 0-.712.498-1.139 1.92-1.139zm-20.126 6.54c-.639 0-1.204.499-1.204 1.066 0 .641.565 1.067 1.205 1.067.64 0 1.139-.426 1.139-1.067 0-.567-.5-1.066-1.139-1.066zm9.53.141v10.31h1.92v-4.124c0-.78.637-1.566 1.348-1.566.64 0 1.067.356 1.067 1.283v4.407l1.993.002v-4.903c0-1.492-.85-2.347-2.416-2.347-.924 0-1.637.355-1.993.854v-3.915H96.7l-.001-.001zm-39.461.572c.996 3.271 2.489 7.11 3.696 9.74h1.564c1.209-2.63 2.703-6.469 3.628-9.741h-2.063c-.57 1.847-1.28 4.124-2.346 6.97-1.067-2.847-1.778-5.194-2.348-6.97h-2.131Zm12.229 2.416c-2.133 0-3.27 1.636-3.27 3.77 0 2.203 1.278 3.768 3.554 3.768.924 0 1.633-.143 2.416-.356l-.354-1.421c-.426.142-1.209.211-1.778.211-1.137 0-1.708-.497-1.85-1.634h4.339v-.852c0-2.277-1.065-3.486-3.058-3.486zm38.396 0c-2.202 0-3.342 1.636-3.342 3.77 0 2.203 1.279 3.768 3.554 3.768.924 0 1.638-.143 2.42-.356l-.356-1.421c-.428.142-1.137.211-1.778.211-1.137 0-1.709-.497-1.851-1.634h4.34v-.852c0-2.277-1.069-3.486-2.987-3.486zm-26.025.071v.002c-1.635 0-2.842.71-2.842 2.201 0 1.138.71 1.635 1.847 2.062.995.283 1.85.428 1.85.997 0 .427-.356.638-1.281.638-1.066 0-1.991-.355-2.204-.498l-.498 1.492c.426.144 1.422.5 2.773.5 1.85 0 3.129-.71 3.129-2.275 0-1.349-.925-1.777-1.992-2.133-.924-.283-1.705-.425-1.705-.923 0-.355.141-.57.995-.57.782 0 1.493.073 2.275.359v-1.566c-.639-.215-1.422-.286-2.347-.286Zm-4.195.002c-.783 0-1.423.494-1.92 1.418v-1.278h-1.847v7.11h1.92v-3.556c0-.852.569-1.92 1.707-1.92.356.003.64.075.78.075V29.1c-.069-.071-.355-.142-.64-.142zm15.786 0c-2.277 0-3.557 1.42-3.557 3.696 0 2.277 1.282 3.7 3.486 3.7.854 0 1.637-.215 2.206-.427l-.427-1.423c-.284.142-.852.213-1.493.213-1.137 0-1.777-.64-1.777-2.063 0-1.564.71-2.131 1.99-2.131.568 0 1.209.142 1.42.212v-1.491c-.141-.071-.923-.286-1.846-.286zm22.538 0c-.781 0-1.42.495-1.848 1.418l-.071-1.278H112.2v7.11h1.917v-3.556c0-.852.57-1.92 1.78-1.92.283.003.567.075.711.075V29.1c-.073-.071-.356-.142-.641-.142zm13.512 0v.002c1.565 0 2.418.854 2.418 2.347v4.902h-1.992v-4.406c0-.926-.426-1.28-1.066-1.28-.711 0-1.351.782-1.351 1.563v4.123h-1.92V29.1h1.778l.07.782c.427-.571 1.21-.923 2.063-.923zm6.755 0c1.066 0 1.563.353 1.848.638l.07-.497H140v6.882c-.009 1.174-.294 1.872-.853 2.362-.568.568-1.495.854-2.631.854-1.28 0-2.132-.215-2.416-.285l.283-1.35c.286.071.783.21 1.708.21 1.422 0 1.92-.568 1.92-1.703v-.642c-.356.426-.926.712-1.778.712-1.635 0-2.844-.926-2.844-3.556 0-2.346 1.28-3.625 2.844-3.625zm-50.768.142v1.208c.214 0 .711.071.853.071v5.83h1.99V29.1h-2.843zm32.068 0v4.975c0 1.493.78 2.278 2.346 2.278.925 0 1.707-.429 2.062-.926l.072.783h1.775V29.1h-1.92v4.054c0 .852-.566 1.563-1.348 1.563-.711 0-1.068-.285-1.068-1.139v-4.477zm-48.065 1.14c.71 0 1.136.497 1.136 1.492v.212h-2.487c.071-1.066.569-1.704 1.35-1.704zm38.325 0c.71 0 1.138.497 1.138 1.492v.212h-2.42c0-1.066.499-1.704 1.28-1.704zm29.08.283c-.784 0-1.422.711-1.422 2.061 0 1.28.283 2.062 1.278 2.062.711 0 1.28-.568 1.28-1.704V30.95c-.211-.212-.569-.426-1.137-.426z" style="fill:#fff;stroke-width:.987534"/>
</svg>
