<?xml version="1.0" encoding="utf-8"?>
<!-- Generator: Adobe Illustrator 24.1.2, SVG Export Plug-In . SVG Version: 6.00 Build 0)  -->
<svg version="1.1" id="Logo" xmlns="http://www.w3.org/2000/svg" xmlns:xlink="http://www.w3.org/1999/xlink" x="0px" y="0px"
	 viewBox="0 0 3200.76 640.5" style="enable-background:new 0 0 3200.76 640.5;" xml:space="preserve">
<style type="text/css">
	.st0{fill:#FFFFFF;}
	.st1{fill:#F84914;}
</style>
<path id="Claim_2_" d="M432.52,463.13v141.73h-17.41V463.13H432.52z M485.97,459.49v55.68c6.28-8.91,16-14.98,31.18-14.98
	c25.31,0,36.45,14.78,36.45,39.69v64.99H537V542.1c0-16.4-7.69-26.93-23.28-26.93c-13.57,0-24.09,8.1-27.74,18.22v71.47h-16.6
	V459.49H485.97z M601.79,502.62V518c4.45-9.52,14.17-17.82,29.36-17.82c4.05,0,7.29,0.41,10.12,1.01v16.6
	c-3.44-1.01-7.69-1.82-11.14-1.82c-12.76,0-23.49,6.48-27.33,20.04v68.84h-16.6V502.62H601.79z M797.37,463.13v15.59h-68.44v45.15
	h65.6v15.59h-65.6v65.4h-17.41V463.13H797.37z M816.81,554.05c0-31.59,18.22-53.86,44.75-53.86c27.13,0,43.53,20.65,43.53,53.05
	v5.67h-71.27c1.01,20.04,12.76,33.41,29.16,33.41c12.15,0,21.26-5.67,27.54-13.36l10.33,11.14c-10.12,11.54-22.47,17.21-37.86,17.21
	C835.44,607.3,816.81,586.44,816.81,554.05z M861.56,515.17c-15.19,0-25.71,11.95-27.54,30.17h54.26
	C887.27,527.52,879.17,515.17,861.56,515.17z M931,581.38V459.49h16.6v120.67c0,6.88,2.02,11.95,9.92,11.95
	c3.04,0,7.29-0.61,9.72-1.42v14.17c-2.63,1.21-8.5,2.43-13.57,2.43C941.73,607.3,931,598.99,931,581.38z M980.2,592.11l6.88-13.16
	c9.52,7.49,19.64,13.36,34.42,13.36c12.35,0,20.25-5.67,20.25-14.58c0-8.3-5.26-12.55-16.6-15.59l-14.78-4.45
	c-12.96-3.85-25.31-11.34-25.31-28.14c0-16.6,12.76-29.36,35.84-29.36c14.38,0,26.93,5.67,36.24,12.96l-7.69,12.76
	c-9.72-7.29-19.64-10.73-28.95-10.73c-12.55,0-18.42,6.07-18.42,13.16c0,6.28,3.44,11.14,13.77,13.77l14.98,4.25
	c16.81,4.66,27.94,13.57,27.94,30.37c0,17.82-14.17,30.57-37.05,30.57C1002.88,607.3,989.52,599.2,980.2,592.11z M1133.27,472.04
	c0-6.28,4.25-11.74,11.74-11.74c7.29,0,11.54,5.47,11.54,11.74c0,6.48-4.25,11.74-11.54,11.74
	C1137.52,483.79,1133.27,478.52,1133.27,472.04z M1153.31,502.62v102.25h-16.6V502.62H1153.31z M1202.31,502.62v13.97
	c6.07-8.5,16.4-16.4,32.19-16.4c25.31,0,36.45,14.78,36.45,39.69v64.99h-16.6V542.1c0-16.4-7.69-26.93-23.28-26.93
	c-13.57,0-24.09,8.1-27.74,18.22v71.47h-16.6V502.62H1202.31z M1436.16,459.49v145.38h-15.59v-13.16
	c-5.06,8.3-14.78,15.59-30.17,15.59c-22.07,0-41.71-17.01-41.71-53.45c0-36.65,19.64-53.66,41.71-53.66
	c14.58,0,24.09,6.88,29.16,14.78v-55.48H1436.16z M1419.56,531.57c-4.45-9.31-13.97-16.4-26.52-16.4
	c-15.79,0-27.33,12.96-27.33,38.67c0,25.51,11.54,38.47,27.33,38.47c12.55,0,22.07-7.09,26.52-16.4V531.57z M1463.7,554.05
	c0-31.59,18.22-53.86,44.75-53.86c27.13,0,43.53,20.65,43.53,53.05v5.67h-71.27c1.01,20.04,12.76,33.41,29.16,33.41
	c12.15,0,21.26-5.67,27.54-13.36l10.33,11.14c-10.12,11.54-22.47,17.21-37.86,17.21C1482.33,607.3,1463.7,586.44,1463.7,554.05z
	 M1508.44,515.17c-15.19,0-25.71,11.95-27.54,30.17h54.26C1534.16,527.52,1526.06,515.17,1508.44,515.17z M1594.09,502.62V518
	c4.45-9.52,14.17-17.82,29.36-17.82c4.05,0,7.29,0.41,10.12,1.01v16.6c-3.44-1.01-7.69-1.82-11.14-1.82
	c-12.76,0-23.49,6.48-27.33,20.04v68.84h-16.6V502.62H1594.09z M1703.83,604.87V463.13h52.44c24.9,0,42.92,14.17,42.92,37.86
	c0,14.78-7.69,25.11-19.44,30.78c14.58,5.26,24.5,16.81,24.5,33.81c0,23.69-18.02,39.28-43.13,39.28H1703.83z M1781.17,501.81
	c0-14.38-9.11-23.08-27.54-23.08h-32.4v46.16h32.4C1772.06,524.89,1781.17,516.39,1781.17,501.81z M1786.23,564.98
	c0-14.58-9.31-24.5-27.74-24.5h-37.26v48.8h37.26C1776.92,589.28,1786.23,579.35,1786.23,564.98z M1847.98,502.62V518
	c4.45-9.52,14.17-17.82,29.36-17.82c4.05,0,7.29,0.41,10.12,1.01v16.6c-3.44-1.01-7.69-1.82-11.14-1.82
	c-12.76,0-23.49,6.48-27.33,20.04v68.84h-16.6V502.62H1847.98z M1897.79,576.32c0-24.09,21.87-37.26,64.59-37.26v-3.64
	c0-12.96-5.26-20.25-19.64-20.25c-13.36,0-23.69,5.87-30.57,11.54l-7.69-12.15c9.72-7.49,23.28-14.38,39.28-14.38
	c24.09,0,35.23,12.15,35.23,36.04v68.64h-16v-11.34c-5.26,6.68-17.01,13.77-33,13.77C1911.76,607.3,1897.79,597.17,1897.79,576.32z
	 M1962.38,578.95v-26.52c-31.18,0-48.19,8.5-48.19,23.89c0,10.73,7.29,16.4,17.62,16.4
	C1944.36,592.72,1956.31,586.85,1962.38,578.95z M2026.97,502.62v13.97c6.07-8.5,16.4-16.4,32.19-16.4
	c25.31,0,36.45,14.78,36.45,39.69v64.99H2079V542.1c0-16.4-7.69-26.93-23.28-26.93c-13.57,0-24.09,8.1-27.74,18.22v71.47h-16.6
	V502.62H2026.97z M2210,459.49v145.38h-15.59v-13.16c-5.06,8.3-14.78,15.59-30.17,15.59c-22.07,0-41.71-17.01-41.71-53.45
	c0-36.65,19.64-53.66,41.71-53.66c14.58,0,24.09,6.88,29.16,14.78v-55.48H2210z M2193.4,531.57c-4.45-9.31-13.97-16.4-26.52-16.4
	c-15.79,0-27.33,12.96-27.33,38.67c0,25.51,11.54,38.47,27.33,38.47c12.55,0,22.07-7.09,26.52-16.4V531.57z M2242.4,563.97v-61.35
	h16.6v59.53c0,20.65,8.71,30.17,25.11,30.17c16.4,0,25.11-9.52,25.11-30.17v-59.53h16.6v61.35c0,29.36-17.62,43.33-41.71,43.33
	C2260.01,607.3,2242.4,593.32,2242.4,563.97z M2373.8,502.62v13.97c6.07-8.5,16.4-16.4,32.19-16.4c25.31,0,36.45,14.78,36.45,39.69
	v64.99h-16.6V542.1c0-16.4-7.69-26.93-23.28-26.93c-13.57,0-24.09,8.1-27.74,18.22v71.47h-16.6V502.62H2373.8z M2473.41,626.73
	l6.88-12.55c7.9,5.87,18.22,11.34,34.02,11.34c16.2,0,24.3-8.71,24.3-25.92v-13.77c-5.06,7.9-14.38,14.17-28.35,14.17
	c-22.07,0-40.9-15.59-40.9-50.01c0-34.02,18.83-49.81,40.9-49.81c13.97,0,23.89,6.88,28.95,14.78v-12.35h16v96.38
	c0,26.12-14.98,41.51-40.9,41.51C2496.9,640.5,2482.93,633.82,2473.41,626.73z M2538.61,568.62v-37.05
	c-4.45-9.31-13.57-16.4-25.71-16.4c-15.59,0-26.52,11.74-26.52,34.83c0,23.28,10.93,35.03,26.52,35.03
	C2524.84,585.02,2534.16,577.94,2538.61,568.62z M2584.16,592.72c0-7.9,5.67-14.38,14.58-14.38c8.91,0,14.58,6.48,14.58,14.38
	c0,7.9-5.67,14.17-14.58,14.17C2589.83,606.89,2584.16,600.61,2584.16,592.72z"/>
<path id="Wortmarke" d="M427.92,76.49l26.59,103.49l31.07-103.49h41.64l31.07,103.49l26.58-103.49h49.97l-53.17,174.84h-44.2
	l-31.07-106.06l-31.07,106.06h-44.2L377.95,76.49H427.92z M656.28,182.87V76.49h49.65v103.17c0,25.07,8.97,33.75,26.58,33.75
	s26.58-8.68,26.58-33.75V76.49h49.65v106.38c0,50.14-32.03,72.63-76.23,72.63C688.31,255.5,656.28,233,656.28,182.87z M664.29,29.57
	c0-14.78,10.57-27,27.55-27c16.97,0,27.55,12.21,27.55,27c0,14.78-10.57,27-27.55,27C674.86,56.56,664.29,44.35,664.29,29.57z
	 M745.65,29.57c0-14.78,10.57-27,27.55-27s27.55,12.21,27.55,27c0,14.78-10.57,27-27.55,27S745.65,44.35,745.65,29.57z
	 M895.22,76.49v18.96c8.01-15.75,24.02-23.14,39.4-23.14c8.01,0,16.01,1.61,19.54,2.57v46.6c-7.37-2.25-15.69-4.18-24.02-4.18
	c-16.65,0-26.58,7.71-31.39,18.64v115.38H849.1V76.49H895.22z M992.27,76.49V29.57h49.65v46.92h35.55v40.5h-35.55v74.24
	c0,17.35,7.05,22.18,16.66,22.18c7.37,0,14.41-2.57,22.42-6.43v41.46c-9.61,3.86-23.06,7.07-37.15,7.07
	c-33.63,0-51.57-16.07-51.57-50.78v-87.74h-21.14v-40.5H992.27z M1123.27,76.49V29.57h49.65v46.92h35.55v40.5h-35.55v74.24
	c0,17.35,7.05,22.18,16.66,22.18c7.37,0,14.41-2.57,22.42-6.43v41.46c-9.61,3.86-23.06,7.07-37.15,7.07
	c-33.63,0-51.57-16.07-51.57-50.78v-87.74h-21.14v-40.5H1123.27z M1232.81,165.83c0-51.1,27.55-93.52,80.08-93.52
	c47.4,0,76.55,33.75,76.55,88.7c0,6.11-0.32,11.25-0.96,17.35h-106.02c0.64,21.85,11.85,35.03,34.27,35.03
	c16.02,0,30.11-9.64,37.16-18l28.83,32.46c-20.5,20.57-42.6,27.64-65.98,27.64C1262.27,255.5,1232.81,221.11,1232.81,165.83z
	 M1341.39,142.7c-0.64-18.32-9.61-29.89-28.83-29.89c-16.98,0-28.51,9.96-30.11,29.89H1341.39z M1628.05,149.77
	c0-25.07-8.97-35.35-26.58-35.35c-13.13,0-22.74,7.71-27.55,16.71c0.32,4.5,0.64,9,0.64,13.82v106.38h-49.65V149.77
	c0-25.07-8.97-35.35-26.58-35.35c-13.13,0-22.1,7.71-26.91,17.03v119.88h-49.65V76.49h46.12v16.39
	c10.57-13.18,26.58-20.57,45.8-20.57c25.3,0,41.64,7.71,50.93,23.46c10.89-12.53,28.51-23.46,51.57-23.46
	c44.2,0,61.5,22.5,61.5,72.63v106.38h-49.65V149.77z M1771.6,236.54v14.78h-46.12V20.57h49.65v69.1
	c8.01-9.32,21.46-17.36,41.64-17.36c36.83,0,69.19,30.21,69.19,91.6s-32.35,91.6-69.19,91.6
	C1797.54,255.5,1780.25,247.15,1771.6,236.54z M1835.66,163.91c0-31.82-13.77-49.49-31.71-49.49c-12.17,0-22.42,5.46-28.83,14.46
	v70.06c6.41,9,16.65,14.46,28.83,14.46C1821.89,213.4,1835.66,195.72,1835.66,163.91z M1911.88,165.83
	c0-51.1,27.55-93.52,80.08-93.52c47.4,0,76.55,33.75,76.55,88.7c0,6.11-0.32,11.25-0.96,17.35h-106.02
	c0.64,21.85,11.85,35.03,34.27,35.03c16.02,0,30.11-9.64,37.16-18l28.83,32.46c-20.5,20.57-42.6,27.64-65.98,27.64
	C1941.35,255.5,1911.88,221.11,1911.88,165.83z M2020.46,142.7c-0.64-18.32-9.61-29.89-28.83-29.89c-16.98,0-28.51,9.96-30.11,29.89
	H2020.46z M2146.98,76.49v18.96c8.01-15.75,24.02-23.14,39.4-23.14c8.01,0,16.01,1.61,19.54,2.57v46.6
	c-7.37-2.25-15.69-4.18-24.02-4.18c-16.66,0-26.58,7.71-31.39,18.64v115.38h-49.65V76.49H2146.98z M2227.69,284.75l16.98-36.32
	c14.73,9.64,32.03,17.36,56.37,17.36c21.46,0,30.11-10.29,30.11-30.21v-11.57c-8.01,9.32-20.82,15.43-41,15.43
	c-36.83,0-68.54-26.03-68.54-83.56s31.71-83.56,68.54-83.56c19.22,0,35.88,8.36,44.52,18.96V76.49h46.12v151.7
	c0,51.74-27.55,79.7-79.76,79.7C2272.85,307.89,2245.63,296.96,2227.69,284.75z M2331.15,182.87v-53.99
	c-6.4-9-15.37-14.46-27.55-14.46c-17.94,0-31.71,13.82-31.71,41.46s13.77,41.46,31.71,41.46
	C2315.77,197.33,2324.74,191.87,2331.15,182.87z M2422.14,28.28c0-15.43,10.89-28.28,28.83-28.28c17.94,0,28.83,12.85,28.83,28.28
	c0,15.43-10.89,28.28-28.83,28.28C2433.03,56.56,2422.14,43.71,2422.14,28.28z M2475.95,76.49v174.84h-49.65V76.49H2475.95z
	 M2506.69,233l17.3-38.89c17.94,12.21,37.79,20.57,57.97,20.57c11.21,0,18.26-4.82,18.26-12.85c0-7.07-3.84-10.61-14.41-13.82
	l-29.79-8.68c-24.66-7.07-43.24-24.75-43.24-50.46c0-31.18,21.46-56.57,68.22-56.57c23.38,0,49.65,9.32,65.98,21.53l-19.54,36.64
	c-17.94-11.57-35.23-17.35-48.37-17.35c-11.85,0-16.01,5.46-16.01,10.93c0,4.5,1.6,9,10.57,11.57l29.79,8.68
	c29.47,8.68,47.08,27.32,47.08,53.67c0,34.07-24.98,57.53-67.26,57.53C2551.85,255.5,2523.99,245.54,2506.69,233z M2758.76,72.31
	c32.03,0,51.89,12.86,69.83,38.57l-33.63,27.32c-9.93-15.43-18.58-23.78-34.59-23.78c-24.66,0-34.91,22.82-34.91,49.49
	c0,26.68,10.25,49.49,34.91,49.49c16.01,0,24.66-8.36,34.59-23.78l33.63,27.32c-17.94,25.71-37.79,38.57-69.83,38.57
	c-50.93,0-83.6-37.92-83.6-91.6C2675.16,110.24,2707.83,72.31,2758.76,72.31z M2906.73,20.57v69.74c10.57-11.57,24.02-18,43.24-18
	c44.2,0,61.82,22.5,61.82,72.63v106.38h-49.65V149.77c0-25.07-9.93-35.35-27.55-35.35c-13.13,0-23.06,7.71-27.87,17.03v119.88
	h-49.65V20.57H2906.73z M3044.13,165.83c0-51.1,27.55-93.52,80.08-93.52c47.41,0,76.55,33.75,76.55,88.7
	c0,6.11-0.32,11.25-0.96,17.35h-106.02c0.64,21.85,11.85,35.03,34.27,35.03c16.01,0,30.11-9.64,37.16-18l28.83,32.46
	c-20.5,20.57-42.6,27.64-65.98,27.64C3073.6,255.5,3044.13,221.11,3044.13,165.83z M3152.71,142.7
	c-0.64-18.32-9.61-29.89-28.83-29.89c-16.98,0-28.51,9.96-30.11,29.89H3152.71z"/>
<g id="Bildmarke_7_">
	<rect id="Fond_4_" y="4.62" class="st0" width="283.46" height="283.46"/>
	<path id="Bildmarke_8_" class="st1" d="M0,4.62v283.46h283.46V4.62H0z M138.77,230.62l12.67,14.36
		c-4.09,6.61-10.26,6.68-10.26,6.68s-8.58,0.64-10-8.08C130.31,238.27,134.98,233.82,138.77,230.62z M135.61,210.92
		c-0.15-3.14,1.62-6.6,5.42-7.24c3.43-0.57,6.03,2.05,6.61,5.06c1.19,6.13-6.27,10.37-6.27,10.37S135.83,215.59,135.61,210.92z
		 M244.18,251.32h-32.34l-14.63-64.3l-13.93,64.3h-11.73l-7.98-8.71c0,0,4.02-7.65,5.48-15.38h-9.14c-0.87,4.16-3.21,8.2-3.21,8.2
		l-9.2-10.43c0,0,11.4-6.77,9.1-17.82c-1.41-6.83-7.94-13.34-17.74-11.77c-8.1,1.3-14.11,9.45-11.91,18.83
		c1.28,5.45,5.8,9.23,5.8,9.23s-15.11,8.74-12.88,22.76c0.26,1.64,0.93,3.38,2,5.09h-21.56l-14.61-64.3l-13.95,64.3H39.27
		l-23.82-95.55h29.5l13.53,65.52l14.61-65.52h25.58l14.89,65.38l13.6-65.38h29.3l13.53,65.52l14.61-65.52h25.58l14.89,65.38
		l13.53-65.38h29.36L244.18,251.32z"/>
</g>
</svg>
